<?xml version="1.0" encoding="UTF-8" standalone="no"?>
<svg
   width="48"
   height="48"
   viewBox="0 0 48 48"
   fill="none"
   version="1.1"
   id="svg2"
   sodipodi:docname="logo.svg"
   inkscape:version="1.3 (0e150ed6c4, 2023-07-21)"
   inkscape:export-filename="logo-48.png"
   inkscape:export-xdpi="96"
   inkscape:export-ydpi="96"
   xmlns:inkscape="http://www.inkscape.org/namespaces/inkscape"
   xmlns:sodipodi="http://sodipodi.sourceforge.net/DTD/sodipodi-0.dtd"
   xmlns="http://www.w3.org/2000/svg"
   xmlns:svg="http://www.w3.org/2000/svg">
  <defs
     id="defs2" />
  <sodipodi:namedview
     id="namedview2"
     pagecolor="#ffffff"
     bordercolor="#111111"
     borderopacity="1"
     inkscape:showpageshadow="0"
     inkscape:pageopacity="0"
     inkscape:pagecheckerboard="1"
     inkscape:deskcolor="#d1d1d1"
     inkscape:zoom="3.7976879"
     inkscape:cx="4.2130898"
     inkscape:cy="4.4764079"
     inkscape:window-width="1920"
     inkscape:window-height="1052"
     inkscape:window-x="0"
     inkscape:window-y="28"
     inkscape:window-maximized="1"
     inkscape:current-layer="svg2" />
  <path
     d="M 0.1259,25.1375 C 0.1259,38.0047 11.063,48 23.7762,48 37.0863,48 47.8741,37.2634 47.8741,24.1492 c 0,-7.669 -3.7109,-14.40095 -9.2027,-18.89978 L 34.662,12.1772 c 3.3147,2.8205 5.5898,7.1748 5.5898,12.0745 0,8.9045 -7.3707,16.2285 -16.4756,16.2285 -9.0536,0 -16.42886,-7.324 -16.42886,-16.4755 0,-1.0909 0.09791,-2.1772 0.29837,-3.2168 z M 31.1982,1.18881 C 28.9231,0.344988 26.8951,0 24.8672,0 23.3334,0 21.9954,0.195804 21.007,0.39627 L 15.8602,9.3007 c 1.8788,-1.08625 4.303,-1.68298 6.9277,-1.68298 1.5338,0 2.9184,0.1958 4.3543,0.59207 z"
     fill="#404553"
     id="path2" />
  <path
     d="m 35.142856,22.761177 h -4.878095 a 0.96571421,0.96571421 0 0 0 -0.259999,0 h -0.210477 a 1.6095236,1.6095236 0 0 0 -0.185714,0.12381 2.0676189,2.0676189 0 0 0 -0.198096,0.148571 1.2380951,1.2380951 0 0 0 -0.111428,0.160952 1.6342856,1.6342856 0 0 0 -0.148572,0.24762 v 0 l -1.980951,5.459999 -5.162858,-13.990475 a 1.2380951,1.2380951 0 0 0 -2.327618,0 l -2.86,7.849523 h -3.961904 a 1.2380955,1.2380955 0 0 0 0,2.476191 h 4.853333 0.284761 0.185715 a 1.0647618,1.0647618 0 0 0 0.198095,-0.12381 2.0676189,2.0676189 0 0 0 0.198095,-0.148572 l 0.111429,-0.160952 a 1.2380951,1.2380951 0 0 0 0.148571,-0.247619 v 0 l 2.005715,-5.608571 5.150476,14.139046 a 1.2380951,1.2380951 0 0 0 1.163808,0.817143 v 0 a 1.2380951,1.2380951 0 0 0 1.16381,-0.817143 l 2.847619,-7.849522 h 3.974285 a 1.2380955,1.2380955 0 0 0 0,-2.476191 z"
     fill="#6563ff"
     id="path1"
     style="fill:#c0392b;fill-opacity:1;stroke:#c0392b;stroke-width:1.2381;stroke-opacity:1" />
</svg>
